<svg xmlns="http://www.w3.org/2000/svg" version="1.1" xmlns:xlink="http://www.w3.org/1999/xlink" xmlns:svgjs="http://svgjs.dev/svgjs" width="1500" height="1500" viewBox="0 0 1500 1500"><rect width="1500" height="1500" fill="#ffffff"></rect><g transform="matrix(0.6666666666666666,0,0,0.6666666666666666,250.00007343750008,187.66666666666674)"><svg viewBox="0 0 320 360" data-background-color="#ffffff" preserveAspectRatio="xMidYMid meet" height="1687" width="1500" xmlns="http://www.w3.org/2000/svg" xmlns:xlink="http://www.w3.org/1999/xlink"><g id="tight-bounds" transform="matrix(1,0,0,1,0.000023499999997511622,0)"><svg viewBox="0 0 320 360" height="360" width="320"><g><svg></svg></g><g><svg viewBox="0 0 320 360" height="360" width="320"><g><path transform="translate(-74.99272,-51.79039) scale(4.65793,4.65793)" d="M20.6 59.9l0.8 1-0.4-1.3c-0.1-0.6-0.8 0.1-0.4 0.3M21.5 59.3c0.3 0.5 0.6 1 0.6 1.5 0 0.7 0.6 1 1.1 1.2-0.7-0.8-1.1-3-1.7-2.7M59.9 16.9c1.7 0 3.3-0.2 5.1 0.2 4.4 1.1 8.1 3.3 10.6 6.4l7 11.2c0.3 2.8 0.9 5.9 0.8 9.3 0.7 0 0.6-1 1.4-1.2-0.8 2-1.2 4.5-1.4 7.4-0.5-1.6 0-4 0.1-5.3-0.7 1.1-1.1 0.3-1.1-0.2 0.1-0.8-0.3-0.7-0.6-1-1.1-1-1.8-2.1-2.6-3.8 0.5-1.3 0.6-3.2-1-4.2-0.5-0.3-1.1-0.8-1.4-1.6-0.4-1.1-1.1-2.4-0.9-4.1 0.1-0.5-1.5 1.1-2.4 0.4-3.9-2.7-7.8-5.8-12.5-8.4-2.5 0-4.3-0.9-5.2-2-0.8-1-0.2-2.3 1-2.4 0.7 0 1.5-0.2 2.1 0.2 0.1-0.4 0.5-0.9 1-0.9M50 14.6l0.2 0.1c1 0.2 1.5 1.6 2.6 1.1 0 0.7 0.1 1.4-0.1 1.9-0.3 0.8-1.2 0.8-1.9 0.8-6.7-0.4-10.6 2.4-14.7 4.8-1.1 0.7-2.3 1.2-3.2 2.1-4.3 4-9 7.7-10.1 15.1l-0.9 8.2c-0.1 0.9-1.1 1.8-0.9 2.9l0.7 4.9c-0.7-0.7-1.1 0.2-0.9 0.6 0.1 0.3 0.5 1.3 1.1 0.4 0.8 1.5 1.6 4.4 2.7 5.7 3.4 4 7.8 7.6 11.4 11.2 0.9-0.2 1.6-0.2 1.8-0.8 0.3 0.6-0.3 1.2-0.8 1.3 1.6 1 3.4 1.9 5.8 2.1 3.1 0.2 6 0.7 8.7 1.4 1.4-0.4 2.8-0.6 4.3-0.7 0.5 0 0.8-0.8 1.4-1l0.1-1c0.6 0.9 0.5-0.3 0.1-0.9 0.7 0.6 0.9 1.1 1.2 1.5 0-0.3 0.8-1.4 0.8-0.1l0.2-1.3c0.3-0.2 0.4 1.1 0.7 0.2 0.3-0.9 0.9-0.2 1.5-0.5-0.2 0.4-0.1 1.2 0.6 0.7l0.8-0.7c0.5 1.2 1.3 0.7 1.7 0.5 4.4-2.8 8.8-6.1 13-9.4l-0.1 1.3 0.5-1.6c0.5 0.5 0.9 0.1 1.1-0.2 0.6-1 1.4-2 2.7-2.9-1.6 4.3-3.5 7.7-5.9 10.5l-1 1.2c0 0.7-0.2 1.6-1 1.7-0.4 0.1-1.2-0.2-1.8 0.4-0.3 0.4 0.7 1.2-0.1 0.6-0.7-0.5-1.4 0-2.2 0.2-0.6 0.2 0.4 0.8 0.6 1.2 0.2 0.4 0.4 0.8 0.3 1.3l-1.1-1.2c-1.3 0.7-2.1 2-3.2 3-0.5 0.4-0.3 1.1-0.3 1.7-0.7 0-1.5-0.2-1.9 0.2-0.3 0.4-0.2 1-0.2 1.6-1-0.1-1.1-1.6-2-1.3-0.9 0.2-1.9 0.3-2.7 0.8 0.6 1.2-1 0.5-0.8 0.7-1.5-0.9-2.8-1.6-4.4-1-3.4-1.1-7.6-0.6-10.7-0.2 0-0.5 0.1-1-0.1-1.1-0.2 0.5-0.8 0.3-0.7 0.3-1.9-1.3-3.8-2.1-5.8-3.2-1.8 0.2-3.5-0.7-4-1.2-1.4-1.3-3-0.6-4.3-0.9-2.8-0.7-3.8-3.6-4.1-5.6-0.2-1-1-1.4-1.3-1.3-1.3-4.2-3.3-8-4.9-11.9-0.4-1-0.3-2-0.3-3.1 0.5 0.2 1 0.1 0.9-0.6-0.5-3.3-1.7-5.8-3-8.2 0.7-3.4 0.8-7.4 2.4-10.4 1.4-2.7 4-4.1 5.8-6.4 0.6-0.8 0.6-1.9 1.2-2.6 2-2 4-4.1 6.2-5.9 1-0.8 2.2 0 3.7-0.3 0.5-1.8 2.5-3.4 4.4-2.9 0.8 0.2 2.4-1.9 2.9-2.1 0.8-0.3 0.4 0.8 0.4 1.5 1.9-1.5 4.5-2.3 6.9-3.2" fill="#60a5fa" fill-rule="nonzero" stroke="none" stroke-width="1" stroke-linecap="butt" stroke-linejoin="miter" stroke-miterlimit="10" stroke-dasharray="" stroke-dashoffset="0" font-family="none" font-weight="none" font-size="none" text-anchor="none" style="mix-blend-mode: normal" data-fill-palette-color="tertiary"></path></g><g transform="matrix(1,0,0,1,84.72525141027913,90)"><svg viewBox="0 0 150.54949717944174 180" height="180" width="150.54949717944174"><g><svg viewBox="0 0 150.54949717944174 180" height="180" width="150.54949717944174"><g><svg viewBox="0 0 192 229.55905298579324" height="180" width="150.54949717944174"><g transform="matrix(1,0,0,1,0,132.78031534221276)"><svg viewBox="0 0 192 96.7787376435805" height="96.7787376435805" width="192"><g id="textblocktransform"><svg viewBox="0 0 192 96.7787376435805" height="96.7787376435805" width="192" id="textblock"><g><svg viewBox="0 0 192 96.7787376435805" height="96.7787376435805" width="192"><g transform="matrix(1,0,0,1,0,0)"><svg width="192" viewBox="2.0181819052480003 -32.3 64.381818094752 32.449999999999996" height="96.7787376435805" data-palette-color="#60a5fa"><path d="M15.05-32.15L15.05-32.15Q20.4-32.15 24.25-30.08 28.1-28 30.15-24.43 32.2-20.85 32.2-16.3L32.2-16.3Q32.2-13.2 31.35-10.25 30.5-7.3 28.48-4.95 26.45-2.6 23-1.23 19.55 0.15 14.4 0.15L14.4 0.15 2.2 0.15Q2-0.05 2.02-0.55 2.05-1.05 2.2-1.25L2.2-1.25Q2.5-1.25 3.3-1.33 4.1-1.4 4.83-1.6 5.55-1.8 5.6-2.05L5.6-2.05Q5.8-2.65 5.83-3.6 5.85-4.55 5.85-5.65L5.85-5.65 5.85-26.5Q5.85-27.6 5.83-28.58 5.8-29.55 5.6-30.15L5.6-30.15Q5.55-30.45 4.83-30.6 4.1-30.75 3.3-30.83 2.5-30.9 2.2-30.9L2.2-30.9Q2.05-31.1 2.02-31.6 2-32.1 2.2-32.3L2.2-32.3Q3.7-32.25 5.15-32.18 6.6-32.1 8-32.1L8-32.1Q9.45-32.1 11.45-32.13 13.45-32.15 15.05-32.15ZM10.15-26.4L10.15-26.4 10.15-5.6Q10.15-5.25 10.15-4.48 10.15-3.7 10.23-2.98 10.3-2.25 10.4-2.1L10.4-2.1Q10.7-1.7 11.88-1.55 13.05-1.4 14.4-1.4L14.4-1.4Q17.9-1.4 20.83-2.9 23.75-4.4 25.55-7.48 27.35-10.55 27.35-15.3L27.35-15.3Q27.35-19.45 26.23-22.35 25.1-25.25 23.18-27.08 21.25-28.9 18.82-29.73 16.4-30.55 13.75-30.55L13.75-30.55Q13.45-30.55 12.65-30.53 11.85-30.5 11.15-30.4 10.45-30.3 10.35-30.05L10.35-30.05Q10.2-29.55 10.18-28.73 10.15-27.9 10.15-27L10.15-27Q10.15-26.85 10.15-26.7 10.15-26.55 10.15-26.4ZM49.25-32.15L49.25-32.15Q54.6-32.15 58.45-30.08 62.3-28 64.35-24.43 66.4-20.85 66.4-16.3L66.4-16.3Q66.4-13.2 65.55-10.25 64.7-7.3 62.67-4.95 60.65-2.6 57.2-1.23 53.75 0.15 48.6 0.15L48.6 0.15 36.4 0.15Q36.2-0.05 36.22-0.55 36.25-1.05 36.4-1.25L36.4-1.25Q36.7-1.25 37.5-1.33 38.3-1.4 39.02-1.6 39.75-1.8 39.8-2.05L39.8-2.05Q40-2.65 40.02-3.6 40.05-4.55 40.05-5.65L40.05-5.65 40.05-26.5Q40.05-27.6 40.02-28.58 40-29.55 39.8-30.15L39.8-30.15Q39.75-30.45 39.02-30.6 38.3-30.75 37.5-30.83 36.7-30.9 36.4-30.9L36.4-30.9Q36.25-31.1 36.22-31.6 36.2-32.1 36.4-32.3L36.4-32.3Q37.9-32.25 39.35-32.18 40.8-32.1 42.2-32.1L42.2-32.1Q43.65-32.1 45.65-32.13 47.65-32.15 49.25-32.15ZM44.35-26.4L44.35-26.4 44.35-5.6Q44.35-5.25 44.35-4.48 44.35-3.7 44.42-2.98 44.5-2.25 44.6-2.1L44.6-2.1Q44.9-1.7 46.07-1.55 47.25-1.4 48.6-1.4L48.6-1.4Q52.1-1.4 55.02-2.9 57.95-4.4 59.75-7.48 61.55-10.55 61.55-15.3L61.55-15.3Q61.55-19.45 60.42-22.35 59.3-25.25 57.37-27.08 55.45-28.9 53.02-29.73 50.6-30.55 47.95-30.55L47.95-30.55Q47.65-30.55 46.85-30.53 46.05-30.5 45.35-30.4 44.65-30.3 44.55-30.05L44.55-30.05Q44.4-29.55 44.37-28.73 44.35-27.9 44.35-27L44.35-27Q44.35-26.85 44.35-26.7 44.35-26.55 44.35-26.4Z" opacity="1" transform="matrix(1,0,0,1,0,0)" fill="#60a5fa" class="wordmark-text-0" data-fill-palette-color="primary" id="text-0"></path></svg></g></svg></g></svg></g></svg></g><g transform="matrix(1,0,0,1,36.672,0)"><svg viewBox="0 0 118.656 118.65797483031092" height="118.65797483031092" width="118.656"><g><svg xmlns="http://www.w3.org/2000/svg" viewBox="2 2.000213546250352 59.99878787445393 59.99978645374965" x="0" y="0" height="118.65797483031092" width="118.656" class="icon-icon-0" data-fill-palette-color="accent" id="icon-0"><g fill="#60a5fa" data-fill-palette-color="accent"><path d="M46.707 13.293A1 1 0 0 0 45.293 13.293L38.293 20.293A1 1 0 0 0 38.293 21.707L42.293 25.707A1 1 0 0 0 43.707 25.707L50.707 18.707A1 1 0 0 0 50.707 17.293ZM43 23.586L40.414 21 46 15.414 48.586 18Z" fill="#60a5fa" data-fill-palette-color="accent"></path><path d="M61.707 12.293L51.707 2.293A1 1 0 0 0 50.293 2.293L34.293 18.293A1 1 0 0 0 34.071 18.628L32.634 22.22 31.707 21.293A1 1 0 0 0 30.293 21.293L25.293 26.293A1 1 0 0 0 25.293 27.707L28 30.418 24.086 37.586A1.82 1.82 0 0 0 24.331 39.666 1.57 1.57 0 0 0 25.469 40.116 2.4 2.4 0 0 0 26.469 39.879L33.6 36.016 36.291 38.707A1 1 0 0 0 37.705 38.707L42.705 33.707A1 1 0 0 0 42.705 32.293L41.778 31.366 45.37 29.929A1 1 0 0 0 45.705 29.707L61.705 13.707A1 1 0 0 0 61.707 12.293M26.3 37.7L29.474 31.89 32.124 34.54ZM37 36.586L27.414 27 31 23.414 40.586 33ZM44.438 28.148L40.238 29.827 34.17 23.759 35.849 19.559 51 4.414 59.586 13Z" fill="#60a5fa" data-fill-palette-color="accent"></path><path d="M22 48A3.223 3.223 0 0 0 25 44.6C25 42.979 23.126 40.767 22.751 40.34A1.03 1.03 0 0 0 21.251 40.34C20.874 40.767 19 42.979 19 44.6A3.223 3.223 0 0 0 22 48M22 42.613A4.9 4.9 0 0 1 23 44.6C23 45.359 22.542 46 22 46S21 45.359 21 44.6A5 5 0 0 1 22 42.613" fill="#60a5fa" data-fill-palette-color="accent"></path><path d="M34 50H3A1 1 0 0 0 2 51V55A1 1 0 0 0 3 56H9.08A7 7 0 0 0 16 62H28A7.01 7.01 0 0 0 35 55V51A1 1 0 0 0 34 50M4 52H9V54H4ZM28 60H16A5.006 5.006 0 0 1 11 55V52H33V55A5.006 5.006 0 0 1 28 60" fill="#60a5fa" data-fill-palette-color="accent"></path></g></svg></g></svg></g><g></g></svg></g></svg></g></svg></g></svg></g><defs></defs></svg><rect width="320" height="360" fill="none" stroke="none" visibility="hidden"></rect></g></svg></g></svg>